<svg width="621" height="180" viewBox="0 0 621 180" fill="none" xmlns="http://www.w3.org/2000/svg">
<path d="M80.9999 106.35C81.1195 106.253 81.3439 106.163 81.3513 106.058C81.3813 105.264 81.3289 104.463 81.3738 103.669C81.471 102.006 81.4785 100.313 81.7925 98.6881C81.9346 97.9391 82.1216 97.2051 82.0917 96.4412C82.0692 95.7222 82.3758 95.0556 82.5329 94.404C83.0713 92.1196 83.4975 89.8128 84.0957 87.536C84.7388 85.0943 85.9727 82.8924 86.5111 80.4357C88.1263 77.687 89.3527 74.7211 91.1624 72.0698C93.4356 68.7294 96.1202 65.741 99.1263 63.0897C101.422 61.075 103.935 59.2999 106.627 57.7795C108.466 56.7385 110.373 55.8322 112.302 55.0683C114.396 54.2369 116.55 53.4655 118.793 52.9787C120.109 52.694 121.478 52.4918 122.771 51.9975C123.497 51.7204 124.372 51.7803 125.179 51.6455C126.989 51.3309 128.858 51.3234 130.706 51.2261C132.799 51.1212 134.863 50.6269 136.972 50.8516C138.026 50.9639 139.073 51.1437 140.12 51.2036C141.16 51.2635 142.236 51.0463 143.231 51.256C144.958 51.623 146.738 51.5856 148.428 51.9975C150.081 52.4019 151.748 52.8588 153.393 53.2558C156.811 54.0796 159.907 55.6 162.98 57.1579C164.76 58.0641 166.495 59.1876 167.99 60.5956C168.746 61.3072 169.606 61.8988 170.488 62.5954V58.0417C171.161 57.6447 171.819 57.5324 172.522 57.42C173.584 57.2478 174.668 57.0156 175.722 56.7984C176.911 56.5662 178.115 56.364 179.252 55.9745C181.765 55.1132 184.33 54.3717 186.67 53.0535C189.108 51.6829 191.486 50.2524 193.505 48.2602C195.457 46.3353 197.319 44.3506 198.68 41.9464C199.599 40.3136 200.579 38.6959 201.342 36.9882C202.449 34.4942 203.353 31.9177 203.944 29.2439C204.153 28.2927 204.497 27.3715 204.655 26.4203C204.804 25.4991 205.275 24.6153 205.043 23.6341C205.888 22.7129 205.185 21.4921 205.694 20.4061C206.113 19.5073 205.776 18.2566 205.776 17.0957H215.206C215.206 17.0957 215.228 17.1107 215.266 17.1631C215.296 17.208 215.318 17.2679 215.318 17.3204C215.318 30.7343 215.318 44.1483 215.318 57.5698C215.318 57.6222 215.363 57.6747 215.423 57.787C215.595 57.6747 215.752 57.5024 215.931 57.4799C216.858 57.3301 217.823 57.3376 218.705 57.0755C219.82 56.7385 220.971 56.6411 222.071 56.3265C223.394 55.952 224.8 55.982 226.071 55.3678C226.744 55.0458 227.529 55.3154 228.285 54.9559C229.032 54.5889 230.027 54.7687 230.85 54.4991C231.605 54.2519 232.39 54.1096 233.145 53.8624C234.237 53.4954 235.471 53.458 236.645 53.4505C241.595 53.413 246.546 53.4355 251.571 53.4355V17.7997H249.881V14.5717C249.372 14.5192 248.916 14.4668 248.393 14.4144V13.0438H245.454C245.424 12.5045 245.402 12.0926 245.372 11.6058H239.457C239.322 11.4934 239.27 11.4634 239.24 11.4185C239.21 11.3736 239.173 11.3137 239.173 11.2687C239.173 8.82709 239.173 6.38546 239.173 3.88391H277.287V75.8146H279.142V71.1261C279.68 71.1036 280.092 71.0812 280.57 71.0587V68.2426C281.086 68.1901 281.542 68.1377 282.058 68.0853V65.2467C282.574 65.2242 283.03 65.2018 283.531 65.1793C283.561 64.7075 283.584 64.2955 283.614 63.7488H285.042V60.4833H286.44C286.485 59.9665 286.523 59.5096 286.567 58.9929H288.325V57.5249C288.863 57.5024 289.274 57.4799 289.753 57.465V56.0794H292.707V54.5889H294.195V52.7914H297.418C297.478 52.2821 297.53 51.8252 297.59 51.301H301.86C301.897 50.7842 301.935 50.3273 301.979 49.8255H326.499V51.241H330.859V52.6716H334.187V54.529H337.126C337.155 55.0683 337.17 55.4802 337.2 55.9595H338.539C338.599 56.4688 338.644 56.9257 338.703 57.45H340.042C340.079 57.9668 340.117 58.4236 340.154 58.9254C340.61 58.9479 341.022 58.9779 341.56 59.0078V60.4309H343.355V63.6664C343.871 63.7113 344.327 63.7563 344.843 63.8012C344.865 64.2356 344.888 64.6475 344.918 65.1943H346.338V68.0928H347.811C347.811 68.9241 347.811 69.6956 347.819 70.467C347.819 71.2534 347.819 72.0398 347.819 72.8937H349.247V78.773C349.786 78.803 350.197 78.8255 350.683 78.8554V80.2186C351.319 80.2485 351.887 80.2785 352.53 80.3084V77.4249C353.046 77.38 353.502 77.3425 354.018 77.2976V74.429H355.506V71.1636H356.897C356.949 70.6543 356.994 70.1899 357.047 69.6731H358.423V66.7297C358.961 66.6997 359.372 66.6772 359.851 66.6548V65.2916C360.487 65.2467 361.062 65.2093 361.705 65.1643V63.8162C362.221 63.7787 362.678 63.7413 363.194 63.6964V61.9288H364.682V60.4983H367.546C367.591 59.9815 367.635 59.5246 367.688 59.0078H369.071V57.5174H372.332V56.0943H375.285V54.6039H378.247V52.7989H381.477C381.537 52.2896 381.582 51.8327 381.642 51.3159H387.37C387.414 50.7992 387.459 50.3423 387.504 49.8405H418.253V51.241H424.086V52.7165C424.916 52.7165 425.686 52.7165 426.457 52.7165C427.242 52.7165 428.027 52.7165 428.879 52.7165V54.514H431.818C431.848 55.0533 431.871 55.4652 431.901 55.952H435.071C435.131 56.4613 435.183 56.9182 435.236 57.435H436.559C436.604 57.9518 436.641 58.4086 436.686 58.9254H439.55V60.3934C440.089 60.4159 440.5 60.4384 440.979 60.4533V61.809C441.487 61.8614 441.951 61.9063 442.467 61.9588V63.7038H444.299C444.329 64.2431 444.351 64.655 444.374 65.1344H445.705C445.765 65.6512 445.817 66.1005 445.877 66.6248H447.208C447.245 67.1416 447.283 67.5985 447.327 68.1078C447.776 68.1302 448.187 68.1602 448.673 68.1827V70.9913C449.182 71.0437 449.638 71.0961 450.154 71.1486V72.8412C450.67 72.8862 451.126 72.9311 451.642 72.9835V75.7322C451.859 75.7996 452.024 75.8446 452.166 75.8895C452.263 75.7847 452.405 75.7023 452.405 75.6124C452.42 74.0246 452.412 72.4368 452.412 70.7816H456.914C457.034 70.6692 457.086 70.6393 457.123 70.5868C457.153 70.5419 457.183 70.482 457.183 70.4296C457.183 67.5011 457.183 64.5652 457.183 61.5693H472.558V50.904H519.923V61.5094H534.924V88.9964H529.158V79.9265H519.96V70.7741H509.566C509.446 70.6617 509.394 70.6318 509.357 70.5794C509.327 70.5344 509.297 70.4745 509.297 70.4221C509.297 67.4936 509.297 64.5577 509.297 61.5693H487.686V70.6692H477.022V79.8815H472.663V89.0264H483.199V99.7067H513.679V108.859H528.844C528.964 108.971 529.016 109.001 529.046 109.054C529.076 109.099 529.106 109.159 529.106 109.211C529.106 112.14 529.106 115.075 529.106 118.071H534.939V127.284H539.672V156.343H535.036V165.488H513.731V176.116H472.61V165.601H457.191C457.161 162.507 457.191 159.482 457.176 156.396H446.871C446.535 156.029 446.31 155.782 445.884 155.31V156.988C445.376 157.048 444.92 157.092 444.404 157.152V158.501C443.768 158.53 443.185 158.56 442.549 158.598C442.527 159.047 442.504 159.459 442.474 160.006H441.076C441.053 160.545 441.031 160.957 441.009 161.436H439.663C439.61 161.946 439.558 162.41 439.506 162.927H436.664V164.769C436.126 164.799 435.714 164.822 435.176 164.852V166.282H431.915V167.713H428.969C428.939 168.252 428.917 168.664 428.887 169.203H424.168V170.634H419.839C419.786 171.151 419.741 171.607 419.689 172.124H409.138V173.959H396.635V172.162H386.039V170.731H381.627C381.597 170.192 381.574 169.78 381.544 169.293H376.901C376.848 168.776 376.796 168.327 376.743 167.81H373.954C373.909 167.293 373.865 166.837 373.812 166.32H370.963V164.829H369.109V162.972H366.215V161.571C365.699 161.534 365.242 161.496 364.741 161.459C364.719 161.002 364.689 160.59 364.667 160.111H363.328C363.268 159.601 363.223 159.145 363.164 158.628H361.84C361.795 158.111 361.75 157.654 361.705 157.137H359.948V155.669C359.41 155.647 358.998 155.624 358.52 155.602V152.419C358.011 152.366 357.548 152.314 357.032 152.262V150.891C356.516 150.869 356.06 150.846 355.559 150.824C355.529 150.344 355.506 149.932 355.476 149.393H354.048V146.495H352.62V143.177H350.818V157.085H352.508V159.946C353.016 159.998 353.48 160.043 353.996 160.096V161.474H356.935C356.964 162.013 356.987 162.425 357.009 162.904H363.186C363.253 165.503 363.201 168.042 363.223 170.634H312.658V163.009H318.79V161.519H321.684V160.126C322.192 160.073 322.656 160.028 323.172 159.983V157.13H325.004V88.0078H323.209V78.8629H321.781V74.444C321.242 74.4141 320.831 74.3916 320.345 74.3616V71.1785C319.837 71.1261 319.38 71.0737 318.865 71.0212V69.6956C318.349 69.6506 317.892 69.6057 317.361 69.5533C317.339 69.1264 317.324 68.7144 317.302 68.1677H315.903C315.873 67.6284 315.858 67.2165 315.836 66.7372H311.192C311.132 66.2279 311.087 65.771 311.028 65.2542H301.972C301.942 65.6587 301.905 66.123 301.867 66.6398H297.53V68.1302H294.27V69.5308C293.754 69.5757 293.298 69.6132 292.782 69.6656C292.759 70.1 292.737 70.512 292.707 71.0587H291.286V72.8562H289.895C289.843 73.373 289.79 73.8299 289.738 74.3467H288.37V77.3126H286.567V78.7056C286.059 78.7656 285.603 78.818 285.087 78.8779V82.046C284.571 82.091 284.115 82.1284 283.599 82.1734V85.0419H282.111V91.2508H280.69C280.563 92.2619 280.652 93.2206 280.63 94.1793C280.615 95.1529 280.63 96.1191 280.63 97.1527H279.194V109.675H277.4V157.048C277.893 157.085 278.469 157.122 279.112 157.167V159.983C279.628 160.021 280.084 160.058 280.593 160.103C280.615 160.553 280.645 160.965 280.667 161.451H283.479C283.531 161.961 283.576 162.418 283.636 162.934H289.723V170.664H240.309C238.313 171.39 236.75 172.079 235.119 172.529C233.287 173.03 231.366 173.128 229.526 173.66C229.466 173.675 229.406 173.66 229.347 173.66C226.886 173.779 224.434 173.944 221.973 174.004C221.113 174.027 220.246 173.734 219.371 173.675C218.519 173.615 217.584 173.877 216.821 173.615C215.4 173.12 213.8 173.427 212.491 172.559C211.003 172.604 209.739 171.81 208.371 171.413C207.197 171.068 206.06 170.447 205.028 169.765C201.574 167.488 199.809 166.14 197.468 163.249C195.718 161.084 194.2 158.718 193.243 156.006C192.735 154.568 192.136 153.153 191.71 151.685C191.508 150.973 191.262 150.269 191.097 149.55C190.933 148.816 190.85 148.06 190.716 147.318C190.604 146.697 190.432 146.075 190.364 145.446C190.297 144.809 190.215 144.195 190.05 143.559C189.811 142.645 190.08 141.604 189.975 140.638C189.302 134.758 189.706 128.856 189.639 122.962C189.572 116.963 189.624 110.956 189.624 104.949V68.6096C185.466 68.3924 177.143 68.4673 175.573 68.7369C176.403 70.0701 177.166 71.4257 177.958 72.7214C179.02 74.4515 179.641 76.3239 180.434 78.1364C180.979 79.3872 181.316 80.7129 181.652 82.0385C181.832 82.7575 182.116 83.4466 182.273 84.1656C182.55 85.4014 182.61 86.6746 182.969 87.9179C183.238 88.8466 182.901 89.9326 183.387 90.8763C183.268 94.5088 184.202 98.1338 183.694 101.744C183.335 104.283 183.507 106.799 183.365 109.316C183.335 109.878 183.096 110.424 182.909 111.158H181.6C179.521 111.158 177.405 110.926 175.371 111.211C171.258 111.78 167.123 111.136 163.047 111.6C159.166 112.042 155.285 111.51 151.457 111.96C147.456 112.432 143.448 111.862 139.5 112.334C135.618 112.799 131.737 112.222 127.909 112.694C123.968 113.173 120.02 112.581 116.139 113.076C112.639 113.518 109.154 113.121 105.587 113.45C105.587 114.926 105.415 116.409 105.625 117.839C105.931 119.876 106.148 121.921 106.32 123.973C107.143 124.76 106.417 125.883 106.993 126.834C107.434 127.568 107.187 128.684 107.449 129.575C107.988 131.425 108.631 133.245 109.266 135.065C109.924 136.945 110.904 138.675 111.816 140.443C112.803 142.36 114.037 144.083 115.338 145.791C116.258 146.989 117.298 148.06 118.345 149.131C121.238 152.059 124.671 154.246 128.417 155.834C130.541 156.733 132.799 157.4 135.095 157.901C136.007 158.104 136.979 158.006 137.824 158.381C138.782 158.808 139.754 158.358 140.666 158.605C142.558 159.122 144.48 158.942 146.394 158.935C147.202 158.935 148.002 158.665 148.81 158.598C149.602 158.538 150.604 158.882 151.143 158.515C151.913 157.991 152.885 158.673 153.461 157.871C154.941 157.931 156.332 157.467 157.663 156.935C159.503 156.209 161.32 155.4 163.062 154.471C165.425 153.205 167.676 151.745 169.583 149.812C170.398 148.989 171.258 148.195 172.043 147.333C173.965 145.206 175.588 142.855 177.098 140.428C177.846 139.222 178.459 137.941 179.23 136.518C181.189 136.601 182.924 137.784 184.913 138.511C184.651 139.499 184.472 140.518 184.113 141.462C183.642 142.675 182.924 143.791 182.482 145.012C181.862 146.742 180.95 148.322 180.052 149.88C178.639 152.329 177.158 154.733 175.371 156.965C173.726 159.01 171.819 160.77 169.987 162.605C168.873 163.721 167.557 164.635 166.263 165.556C164.999 166.455 163.668 167.248 162.359 168.087C160.438 169.316 158.389 170.289 156.257 171.068C154.979 171.54 153.565 171.697 152.369 172.304C151.591 172.693 150.799 172.476 150.013 172.851C149.116 173.285 147.95 173.225 146.895 173.27C146.065 173.308 145.362 173.832 144.472 173.682C143.702 173.555 142.82 173.45 142.102 173.697C140.315 174.311 138.49 174.139 136.74 173.952C134.766 173.742 132.784 173.817 130.84 173.592C129.913 173.487 128.978 173.375 128.051 173.263C127.183 173.15 126.264 173.09 125.463 172.866C123.213 172.229 120.857 172.064 118.636 171.195C117.5 170.754 116.273 170.402 115.092 170.012C113.955 169.638 112.886 169.136 111.794 168.671C107.823 166.979 104.787 164.919 101.908 162.837C99.56 161.137 97.3989 159.227 95.5145 157.062C93.2263 154.441 91.1997 151.618 89.3901 148.599C88.0291 146.337 86.9224 143.963 85.9503 141.559C84.9557 139.102 84.0883 136.541 83.5723 133.904C83.3779 132.893 83.1161 131.89 82.8394 130.901C82.5553 129.905 82.6749 128.819 82.1216 127.89C82.0917 127.845 82.1216 127.77 82.1141 127.71C81.9944 126.287 81.8823 124.872 81.7402 123.449C81.643 122.453 81.456 121.472 81.3887 120.475C81.3214 119.502 81.3588 118.528 81.3289 117.555C81.3289 117.502 81.1195 117.457 81.0148 117.405C81.0148 113.727 81.0148 110.05 81.0148 106.38L80.9999 106.35ZM425.956 143.042H427.444V138.675H428.932V132.496C429.448 132.451 429.911 132.414 430.42 132.377V124.797C430.936 124.737 431.392 124.685 431.758 124.647V97.1976C431.28 97.1751 430.869 97.1527 430.33 97.1227V89.4009H428.894C428.894 88.3673 428.909 87.3936 428.894 86.4275C428.879 85.4688 428.969 84.5101 428.835 83.499H427.414V80.2335H425.926V77.3575C425.283 77.3275 424.707 77.2976 424.071 77.2676V74.3766H422.643V72.9461C422.104 72.9161 421.693 72.8937 421.155 72.8637V69.5533H419.786C419.734 69.0365 419.682 68.5796 419.629 68.0628H416.818C416.795 67.5835 416.773 67.1716 416.75 66.6323H414.986C414.956 66.093 414.941 65.6811 414.911 65.1419H410.491V63.7563H395.124V65.2168H392.253C392.215 65.7335 392.178 66.1979 392.14 66.7072H389.269V68.1377H387.467C387.437 68.677 387.422 69.0889 387.392 69.6282H385.926V71.0138C385.41 71.0662 384.947 71.1036 384.438 71.1561V72.9161H383.01V74.3392C382.472 74.3691 382.06 74.3916 381.522 74.4215V77.3725H380.094V80.271H378.239V85.0719H376.751V91.2284C376.228 91.2808 375.771 91.3257 375.263 91.3781V100.448C374.784 100.471 374.373 100.486 373.939 100.508V123.232C374.425 123.262 374.837 123.284 375.375 123.314V132.511H376.796C376.796 133.365 376.781 134.152 376.796 134.938C376.818 135.702 376.691 136.488 376.901 137.305H378.284V141.679H380.138V144.525C380.654 144.577 381.118 144.63 381.627 144.682V147.865C382.105 147.888 382.516 147.903 383.055 147.933V149.333C383.593 149.363 384.005 149.386 384.543 149.416V152.374H387.362C387.422 152.891 387.467 153.348 387.527 153.857H389.291V155.572C389.807 155.609 390.271 155.647 390.78 155.684V157.092C391.565 157.092 392.29 157.092 393.015 157.092C393.726 157.092 394.436 157.122 395.199 157.137V158.523H410.574V157.055H414.896C414.941 156.538 414.986 156.074 415.03 155.565H416.728C416.78 154.928 416.825 154.351 416.87 153.715H419.682C419.712 153.228 419.734 152.816 419.756 152.366C420.265 152.329 420.721 152.292 421.237 152.254V150.921C421.753 150.861 422.209 150.809 422.725 150.756V147.948C423.204 147.925 423.615 147.903 424.153 147.873V146.405H425.948V143.072L425.956 143.042ZM251.593 137.964V68.5796H215.318C215.318 91.1984 215.311 113.735 215.333 136.264C215.333 138.421 215.146 140.57 215.64 142.735C216.058 144.585 216.462 146.427 217.27 148.127C217.808 149.258 218.19 150.546 219.311 151.325C220.47 153.52 222.512 154.786 224.591 155.789C226.871 156.89 229.369 157.527 231.971 157.437C233.519 157.385 235.045 157.429 236.6 157.13C238.574 156.748 240.354 156.021 241.894 154.846C243.779 153.4 245.192 151.498 246.149 149.288C246.553 148.352 246.875 147.371 247.391 146.502C247.929 145.581 248.049 144.532 248.281 143.574C248.565 142.405 248.969 141.252 249.096 140.038C249.17 139.357 249.313 138.683 249.432 137.971H251.601L251.593 137.964ZM467.802 156.284H513.739V147.086H519.885V137.949H513.656V127.276H503V118.079H467.764V109.016H459.314V127.98C458.799 128.033 458.342 128.085 457.834 128.137V135.32C457.602 135.38 457.438 135.425 457.243 135.477V137.994H461.61V147.199H467.802V156.284ZM105.535 104.2C107.464 103.976 109.177 104.29 110.926 103.848C112.392 103.481 113.985 103.759 115.54 103.466C117.103 103.174 118.733 103.444 120.341 103.092C121.71 102.792 123.16 103.062 124.596 102.732C126.017 102.41 127.535 102.643 129.03 102.373C130.646 102.081 132.343 102.328 134.011 101.984C135.327 101.706 136.703 101.939 138.086 101.646C139.694 101.302 141.391 101.639 143.066 101.265C144.435 100.957 145.886 101.205 147.321 100.912C148.81 100.605 150.402 100.635 151.928 100.568C154.074 100.463 156.198 100.111 158.284 100.066C158.478 99.7067 158.748 99.4221 158.778 99.1075C159.002 96.6359 159.78 94.2167 159.54 91.6927C159.488 91.101 159.443 90.427 159.675 89.9177C159.952 89.3035 160.049 88.8317 159.652 88.2699C159.533 88.0977 159.525 87.8206 159.533 87.5884C159.638 85.6186 159.323 83.7237 158.815 81.8213C158.374 80.1661 157.925 78.5109 157.155 76.998C155.764 74.2643 153.984 71.8151 151.741 69.6731C149.692 67.7183 147.374 66.2503 144.734 65.2916C143.231 64.7449 141.676 64.2955 140.09 64.1308C138.58 63.9735 137.032 64.0559 135.506 64.1083C134.026 64.1532 132.56 64.1233 131.057 64.3854C129.001 64.7449 127.019 65.3291 125.134 66.093C122.293 67.239 119.72 68.9616 117.485 71.1111C116.355 72.1896 115.249 73.2831 114.359 74.5863C113.327 76.1067 112.272 77.6047 111.42 79.2449C110.687 80.6604 109.992 82.091 109.453 83.5739C108.952 84.9595 108.406 86.3376 108.122 87.8056C107.883 89.0489 107.554 90.2697 107.3 91.513C107.105 92.4567 106.911 93.4228 106.701 94.374C106.477 95.4001 106.425 96.4711 106.313 97.5272C106.283 97.8268 106.432 98.2387 106.283 98.4259C105.602 99.3097 106.081 100.306 105.939 101.235C105.804 102.156 105.677 103.077 105.52 104.215L105.535 104.2Z" fill="black"/>
</svg>
