<svg width="37" height="37" viewBox="0 0 37 37" fill="none" xmlns="http://www.w3.org/2000/svg">
<path fill-rule="evenodd" clip-rule="evenodd" d="M30.5523 34.3523V14.0635C30.5523 7.26206 25.0505 1.74582 18.2779 1.74582C11.5054 1.74582 6.00355 7.26206 6.00355 14.0635V34.3523C6.00355 34.3956 6.03243 34.4245 6.07575 34.4245H30.4945C30.5378 34.4245 30.5667 34.3956 30.5667 34.3523H30.5523ZM18.2779 0.0996094C10.5812 0.0996094 4.3429 6.35232 4.3429 14.0779V34.3668C4.3429 35.3198 5.10824 36.0996 6.06131 36.0996H30.4801C31.4331 36.0996 32.1985 35.3198 32.1985 34.3668V14.0779C32.1985 6.36676 25.9602 0.0996094 18.2635 0.0996094H18.2779Z" fill="#007AFF"/>
</svg>
